HIERARCHY
ROOT root
{
	OFFSET	0	13.1	24.9
	CHANNELS 6  Xposition Yposition Zposition Xrotation Yrotation Zrotation
	JOINT spine_1
	{
		OFFSET	0	9.99999	0
		CHANNELS 3  Xrotation Yrotation Zrotation
		JOINT spine_2
		{
			OFFSET	0	112	-10
			CHANNELS 3  Xrotation Yrotation Zrotation
			JOINT spine_3
			{
				OFFSET	0	206.5	19.3
				CHANNELS 3  Xrotation Yrotation Zrotation
				JOINT spine_4
				{
					OFFSET	0	110.4	14.6
					CHANNELS 3  Xrotation Yrotation Zrotation
					JOINT neck_1
					{
						OFFSET	0	71.8	-50.3
						CHANNELS 3  Xrotation Yrotation Zrotation
						JOINT neck_2
						{
							OFFSET	0	86.2	-25.8
							CHANNELS 3  Xrotation Yrotation Zrotation
							JOINT head_ee
							{
								OFFSET	0	179.8	-8.7
								CHANNELS 3  Xrotation Yrotation Zrotation
								End Site
								{
									OFFSET	1	0	0
								}
							}
						}
					}
					JOINT left_clavicle
					{
						OFFSET	-43.2	22.4	-70.8
						CHANNELS 3  Xrotation Yrotation Zrotation
						JOINT left_shoulder
						{
							OFFSET	-93.9	-5.79999	48.7
							CHANNELS 3  Xrotation Yrotation Zrotation
							JOINT left_elbow
							{
								OFFSET	-291.4	-30.8	15.2
								CHANNELS 3  Xrotation Yrotation Zrotation
								JOINT left_lowarm_twist
								{
									OFFSET	-110.7	-3.89999	13.6
									CHANNELS 3  Xrotation Yrotation Zrotation
									JOINT left_hand
									{
										OFFSET	-110.7	-3.89999	13.6
										CHANNELS 3  Xrotation Yrotation Zrotation
										JOINT left_ee
										{
											OFFSET	-80.8	-5.10001	12.1
											CHANNELS 3  Xrotation Yrotation Zrotation
											End Site
											{
												OFFSET	1	0	0
											}
										}
									}
								}
							}
						}
					}
					JOINT right_clavicle
					{
						OFFSET	43.2	22.4	-70.8
						CHANNELS 3  Xrotation Yrotation Zrotation
						JOINT right_shoulder
						{
							OFFSET	93.9	-5.79999	48.7
							CHANNELS 3  Xrotation Yrotation Zrotation
							JOINT right_elbow
							{
								OFFSET	291.4	-30.8	15.2
								CHANNELS 3  Xrotation Yrotation Zrotation
								JOINT right_lowarm_twist
								{
									OFFSET	110.7	-3.89999	13.6
									CHANNELS 3  Xrotation Yrotation Zrotation
									JOINT right_hand
									{
										OFFSET	110.7	-3.89999	13.6
										CHANNELS 3  Xrotation Yrotation Zrotation
										JOINT right_ee
										{
											OFFSET	80.8	-5.10001	12.1
											CHANNELS 3  Xrotation Yrotation Zrotation
											End Site
											{
												OFFSET	1	0	0
											}
										}
									}
								}
							}
						}
					}
				}
			}
		}
	}
	JOINT left_hip
	{
		OFFSET	-82.8	-127.5	0.300001
		CHANNELS 3  Xrotation Yrotation Zrotation
		JOINT left_knee
		{
			OFFSET	-28.2	-396.7	2.2
			CHANNELS 3  Xrotation Yrotation Zrotation
			JOINT left_ankle
			{
				OFFSET	-11.7	-411.3	35.4
				CHANNELS 3  Xrotation Yrotation Zrotation
				JOINT left_toes
				{
					OFFSET	0	-60	-88.6
					CHANNELS 3  Xrotation Yrotation Zrotation
					JOINT left_foot_ee
					{
						OFFSET	-22.5	-16.5	-42.2
						CHANNELS 3  Xrotation Yrotation Zrotation
						End Site
						{
							OFFSET	1	0	0
						}
					}
				}
			}
		}
	}
	JOINT right_hip
	{
		OFFSET	82.8	-127.5	0.300001
		CHANNELS 3  Xrotation Yrotation Zrotation
		JOINT right_knee
		{
			OFFSET	28.2	-396.7	2.2
			CHANNELS 3  Xrotation Yrotation Zrotation
			JOINT right_ankle
			{
				OFFSET	11.7	-411.3	35.4
				CHANNELS 3  Xrotation Yrotation Zrotation
				JOINT right_toes
				{
					OFFSET	0	-60	-88.6
					CHANNELS 3  Xrotation Yrotation Zrotation
					JOINT right_foot_ee
					{
						OFFSET	22.5	-16.5	-42.2
						CHANNELS 3  Xrotation Yrotation Zrotation
						End Site
						{
							OFFSET	1	0	0
						}
					}
				}
			}
		}
	}
}
MOTION
Frames: 9
Frame Time: 0.02
2800.94 716.97 -1473.77 8.74581733968 53.0092294503 -13.806669683 0.111168 0.402554 4.17797 0.120866 0.136122 4.19508 0.135147 -0.740044 4.13164 0.111341 -0.07884 4.19655 -8.09094 18.5626 -3.66721 -8.22598 37.2599 0.617631 -0.0 0.0 -0.0 -1.18743 19.7125 0.547668 12.1794 -22.8295 42.1388 4.08857 -63.7039 2.54082 -33.1181 -2.25076 3.52388 -2.14587 18.5047 -5.43786 -0.0 0.0 -0.0 12.5392 26.3503 -24.5746 -27.1799 14.1744 -68.6579 0.170056 4.81538 -0.00715029 28.7368 -0.103666 3.63121 0.516644 5.51885 -1.14455 0.0 0.0 0.0 -38.2227 45.2285 19.9714 -6.74947 0.218477 1.01221 30.3454 -31.5508 -4.94851 -38.7656 0.0 0.0 -0.0 0.0 -0.0 17.9186 10.0555 -9.88849 0.798709 0.0337127 0.117929 -0.950451 6.11722 -0.144031 -21.7125 0.0 0.0 0.0 0.0 0.0 
2778.25719953 720.416 -1483.02273271 9.79448492636 52.7188984205 -15.5338953966 0.141659 0.496967 4.37354 0.15227 0.217936 4.39624 0.173789 -0.698866 4.3459 0.147442 -0.00443306 4.40163 -8.03846 19.1302 -1.09292 -8.2152 36.5472 3.28658 -0.0 0.0 -0.0 -1.59299 21.9539 0.299297 10.394 -24.156 42.8008 3.85312 -62.3324 2.33099 -36.1794 -2.55431 3.77298 -1.74317 18.9446 -2.7998 -0.0 0.0 -0.0 11.9896 26.2138 -23.333 -24.6885 15.3274 -71.1147 0.164074 4.64675 -0.006657 27.2633 -0.142799 3.44706 0.0405136 5.49315 2.05546 0.0 0.0 0.0 -31.8008 43.6401 14.8279 -20.4692 0.289766 3.11111 33.1311 -31.5945 -5.29245 -39.2243 0.0 0.0 -0.0 0.0 -0.0 16.4278 11.2443 -8.4396 -3.43985 -0.126267 -0.512731 6.53256 8.9439 0.982212 -23.7345 0.0 0.0 0.0 0.0 0.0 
2778.49223624 720.416 -1483.57919988 9.49130843803 51.3259931206 -15.1493055623 0.141659 0.496967 4.37354 0.15227 0.217936 4.39624 0.173789 -0.698866 4.3459 0.147442 -0.00443306 4.40163 -8.03846 19.1302 -1.09292 -8.2152 36.5472 3.28658 -0.0 0.0 -0.0 -1.59299 21.9539 0.299297 10.394 -24.156 42.8008 3.85312 -62.3324 2.33099 -36.1794 -2.55431 3.77298 -1.74317 18.9446 -2.7998 -0.0 0.0 -0.0 11.9896 26.2138 -23.333 -24.6885 15.3274 -71.1147 0.164074 4.64675 -0.006657 27.2633 -0.142799 3.44706 0.0405136 5.49315 2.05546 0.0 0.0 0.0 -31.8008 43.6401 14.8279 -20.4692 0.289766 3.11111 33.1311 -31.5945 -5.29245 -39.2243 0.0 0.0 -0.0 0.0 -0.0 16.4278 11.2443 -8.4396 -3.43985 -0.126267 -0.512731 6.53256 8.9439 0.982212 -23.7345 0.0 0.0 0.0 0.0 0.0 
2716.68072956 723.077 -1497.86091832 9.579007265 51.9730388033 -16.2784682667 0.392353 0.712934 4.21652 0.402132 0.44343 4.25325 0.43928 -0.428169 4.25481 0.414111 0.248541 4.26905 -8.29445 19.978 -1.67908 -8.54111 38.5769 3.02924 -0.0 0.0 -0.0 -2.35776 20.9449 -0.963246 2.14309 -20.9172 46.8179 2.64148 -52.6029 1.30576 -35.727 -2.50862 3.73719 -1.07282 17.0847 0.40256 -0.0 0.0 -0.0 11.6552 24.9172 -22.7126 -21.0806 16.5314 -71.8064 0.181197 5.12924 -0.00811604 27.9276 -0.125742 3.53021 0.857713 10.8205 -1.1889 0.0 0.0 0.0 -23.5829 38.5915 10.5692 -37.9096 -0.339162 5.70341 28.3641 -26.6965 -4.41985 -39.8782 0.0 0.0 -0.0 0.0 -0.0 12.4432 13.6953 -6.76264 -6.18408 -0.204772 -0.926525 12.2751 9.71283 1.8139 -17.9022 0.0 0.0 0.0 0.0 0.0 
2717.15965492 723.077 -1499.47701807 9.35173535883 50.886003935 -15.9877937526 0.392353 0.712934 4.21652 0.402132 0.44343 4.25325 0.43928 -0.428169 4.25481 0.414111 0.248541 4.26905 -8.29445 19.978 -1.67908 -8.54111 38.5769 3.02924 -0.0 0.0 -0.0 -2.35776 20.9449 -0.963246 2.14309 -20.9172 46.8179 2.64148 -52.6029 1.30576 -35.727 -2.50862 3.73719 -1.07282 17.0847 0.40256 -0.0 0.0 -0.0 11.6552 24.9172 -22.7126 -21.0806 16.5314 -71.8064 0.181197 5.12924 -0.00811604 27.9276 -0.125742 3.53021 0.857713 10.8205 -1.1889 0.0 0.0 0.0 -23.5829 38.5915 10.5692 -37.9096 -0.339162 5.70341 28.3641 -26.6965 -4.41985 -39.8782 0.0 0.0 -0.0 0.0 -0.0 12.4432 13.6953 -6.76264 -6.18408 -0.204772 -0.926525 12.2751 9.71283 1.8139 -17.9022 0.0 0.0 0.0 0.0 0.0 
2676.13962247 729.577 -1504.50868197 8.40138704035 47.6249202682 -14.9702256902 0.609862 0.743783 4.18078 0.619457 0.476485 4.21954 0.658184 -0.372674 4.22995 0.633348 0.299428 4.23575 -5.88919 19.5739 -3.04739 -5.63204 38.4562 0.60051 -0.0 0.0 -0.0 -2.26949 18.6217 -1.24374 -8.9684 -23.485 48.8029 1.49928 -36.5988 0.495845 -35.3813 -2.47389 3.7096 -0.255717 14.7323 4.4408 -0.0 0.0 -0.0 12.1842 25.878 -23.8157 -17.9248 17.7889 -71.2207 0.436074 12.1898 -0.046564 27.6581 -0.13278 3.49649 1.10762 12.3651 -2.20701 0.0 0.0 0.0 -18.873 36.7909 7.52323 -44.1384 -0.750816 6.56766 28.729 -25.3477 -4.40001 -40.1496 0.0 0.0 -0.0 0.0 -0.0 8.68084 14.0221 -5.59446 -6.17337 -0.204504 -0.924903 14.8849 16.3751 2.27215 -14.2557 0.0 0.0 0.0 0.0 0.0 
2662.00037877 730.238 -1505.12212518 8.00754939372 48.0770887752 -14.8519284557 0.658817 0.897817 4.19096 0.668366 0.629563 4.23948 0.718712 -0.221681 4.28016 0.693446 0.456444 4.26155 -5.44826 19.1994 -4.42796 -5.04697 38.6993 -1.0675 -0.0 0.0 -0.0 -2.21444 22.3497 -0.510869 -9.58582 -22.635 49.5104 1.61374 -38.6359 0.565725 -35.907 -2.52676 3.75147 -0.430291 14.829 3.39468 -0.0 0.0 -0.0 12.4369 26.0434 -24.3758 -15.7413 18.4294 -71.7847 0.438493 12.2554 -0.0470761 27.6922 -0.131897 3.50077 1.18501 13.4096 -2.27341 0.0 0.0 0.0 -17.8939 36.4191 6.90219 -42.1387 -0.608405 6.29505 30.5944 -25.3271 -4.62406 -40.0919 0.0 0.0 -0.0 0.0 -0.0 7.62657 14.42 -4.70053 -5.42927 -0.185157 -0.812349 15.3604 17.0842 2.35259 -14.0445 0.0 0.0 0.0 0.0 0.0 
2662.29889607 730.238 -1506.41687429 7.92581446191 47.5477494522 -14.7416186794 0.658817 0.897817 4.19096 0.668366 0.629563 4.23948 0.718712 -0.221681 4.28016 0.693446 0.456444 4.26155 -5.44826 19.1994 -4.42796 -5.04697 38.6993 -1.0675 -0.0 0.0 -0.0 -2.21444 22.3497 -0.510869 -9.58582 -22.635 49.5104 1.61374 -38.6359 0.565725 -35.907 -2.52676 3.75147 -0.430291 14.829 3.39468 -0.0 0.0 -0.0 12.4369 26.0434 -24.3758 -15.7413 18.4294 -71.7847 0.438493 12.2554 -0.0470761 27.6922 -0.131897 3.50077 1.18501 13.4096 -2.27341 0.0 0.0 0.0 -17.8939 36.4191 6.90219 -42.1387 -0.608405 6.29505 30.5944 -25.3271 -4.62406 -40.0919 0.0 0.0 -0.0 0.0 -0.0 7.62657 14.42 -4.70053 -5.42927 -0.185157 -0.812349 15.3604 17.0842 2.35259 -14.0445 0.0 0.0 0.0 0.0 0.0 
2651.42894324 728.415 -1503.96239483 7.58219149634 48.8722797817 -14.6880822406 0.693707 0.914085 4.13896 0.703002 0.649097 4.18862 0.754074 -0.189783 4.23428 0.729383 0.480719 4.21123 -5.16746 19.1416 -4.88921 -4.68435 38.8934 -1.67154 -0.0 0.0 -0.0 -1.73998 18.0149 -0.541387 -13.0607 -22.9305 52.1841 1.22951 -31.3429 0.344951 -35.3016 -2.46591 3.7032 -0.0146774 13.2011 5.33608 -0.0 0.0 -0.0 12.6517 26.3559 -24.8325 -13.7582 18.9402 -70.8653 0.551481 15.2798 -0.073975 27.6881 -0.132002 3.50025 1.1 12.377 -2.15045 0.0 0.0 0.0 -16.4309 36.7979 5.72595 -44.978 -0.813448 6.68064 31.7262 -25.1597 -4.74789 -39.5708 0.0 0.0 -0.0 0.0 -0.0 7.51715 14.1158 -3.92139 -6.17842 -0.20463 -0.925667 17.6232 17.0927 2.66989 -12.4827 0.0 0.0 0.0 0.0 0.0 
